<svg width="45" height="45" viewBox="0 0 45 45" fill="none" xmlns="http://www.w3.org/2000/svg">
<path d="M42.7225 12.6562C39.0364 5.09972 31.2421 -0.0938636 22.2615 0.00128601C9.86549 0.128152 -0.126179 10.2854 0.00120461 22.639C0.0091661 23.6856 0.104704 24.7164 0.248011 25.7234C2.68423 25.6837 5.12044 25.6996 7.54869 25.8185C7.14266 24.0662 7.03916 22.2108 7.30985 20.284C8.28115 13.4491 13.8781 7.99385 20.7727 7.24058C24.6022 6.82034 28.1849 7.82734 31.0749 9.78583C31.5605 10.1189 32.1338 10.3092 32.7229 10.3964C36.5763 10.9831 39.9599 11.8236 42.7146 12.6641L42.7225 12.6562Z" fill="url(#paint0_linear_4001_184)"/>
<path d="M44.6987 18.8172C42.2307 18.5714 39.7547 18.3811 37.2707 18.3335C37.8439 20.3951 38.0031 22.6232 37.621 24.9385C36.4586 31.8923 30.4795 37.2365 23.4177 37.6489C19.9146 37.855 16.6425 36.8797 13.9594 35.0798C13.4658 34.7468 12.8926 34.5565 12.3034 34.4693C8.43416 33.8825 5.03461 33.042 2.27197 32.2015C5.9263 39.6549 13.6171 44.8089 22.4942 44.8089C34.8982 44.8089 44.9854 34.7627 44.9854 22.4091C44.9854 21.188 44.8819 19.9907 44.6908 18.8172H44.6987Z" fill="url(#paint1_linear_4001_184)"/>
<path d="M44.6987 18.8172C42.2307 18.5714 39.7547 18.3811 37.2707 18.3335C37.8439 20.3951 38.0031 22.6232 37.621 24.9385C36.4586 31.8923 30.4795 37.2365 23.4177 37.6489C19.9146 37.855 16.6425 36.8797 13.9594 35.0798C13.4658 34.7468 12.8926 34.5565 12.3034 34.4693C8.43416 33.8825 5.03461 33.042 2.27197 32.2015C5.9263 39.6549 13.6171 44.8089 22.4942 44.8089C34.8982 44.8089 44.9854 34.7627 44.9854 22.4091C44.9854 21.188 44.8819 19.9907 44.6908 18.8172H44.6987Z" fill="url(#paint2_linear_4001_184)"/>
<path d="M44.2754 16.811C44.0684 16.0102 43.4713 15.3758 42.6831 15.13C37.9938 13.6552 30.8126 11.9663 22.5087 11.9663C13.4326 11.9663 10.67 16.6128 9.81812 21.6161C11.5139 20.5694 16.8242 19.1025 22.5087 19.1025C33.7902 19.1025 42.922 22.6786 44.9681 23.5508C44.984 23.1702 44.9999 22.7896 44.9999 22.409C44.9999 20.4743 44.7531 18.603 44.2834 16.8189L44.2754 16.811Z" fill="url(#paint3_linear_4001_184)"/>
<path d="M0.716534 28.0464C0.923533 28.8472 1.52064 29.4816 2.30883 29.7274C6.99815 31.2022 14.1794 32.8911 22.4832 32.8911C31.5593 32.8911 34.322 28.2446 35.1739 23.2413C33.4781 24.288 28.1677 25.7549 22.4832 25.7549C11.2018 25.7549 2.06999 22.1788 0.0238845 21.3066C0.00796149 21.6872 0 22.0678 0 22.4484C0 24.3831 0.246806 26.2544 0.716534 28.0385V28.0464Z" fill="url(#paint4_linear_4001_184)"/>
<defs>
<linearGradient id="paint0_linear_4001_184" x1="4.31633" y1="20.4188" x2="29.6643" y2="6.22505" gradientUnits="userSpaceOnUse">
<stop stop-color="#FFAF5B"/>
<stop offset="0.49" stop-color="#F6642D"/>
<stop offset="1" stop-color="#D42E58"/>
</linearGradient>
<linearGradient id="paint1_linear_4001_184" x1="18.8435" y1="31.5712" x2="-18.1135" y2="57.9849" gradientUnits="userSpaceOnUse">
<stop stop-color="#5A2FBA"/>
<stop offset="1" stop-color="#2F0C6A"/>
</linearGradient>
<linearGradient id="paint2_linear_4001_184" x1="36.3485" y1="32.8815" x2="42.5595" y2="15.0723" gradientUnits="userSpaceOnUse">
<stop stop-color="#210151" stop-opacity="0"/>
<stop offset="1" stop-color="#210151"/>
</linearGradient>
<linearGradient id="paint3_linear_4001_184" x1="24.1545" y1="11.9663" x2="142.983" y2="46.0726" gradientUnits="userSpaceOnUse">
<stop stop-color="#5A2FBA"/>
<stop offset="0.802709" stop-color="#2F0C6A"/>
<stop offset="1" stop-color="#200050"/>
</linearGradient>
<linearGradient id="paint4_linear_4001_184" x1="35.0465" y1="27.1028" x2="4.02851" y2="27.1028" gradientUnits="userSpaceOnUse">
<stop stop-color="#F6642D"/>
<stop offset="1" stop-color="#D42E58"/>
</linearGradient>
</defs>
</svg>
