<svg width="413" height="134" viewBox="0 0 413 134" fill="none" xmlns="http://www.w3.org/2000/svg">
<path d="M226.78 74.4595L230.601 60.1342H230.561L235.813 44.8936H246.916L230.8 89.302H222.682L213.171 64.4716L203.939 89.302H195.822L179.268 44.8936H190.37L195.901 60.0945L199.88 74.4595L209.868 44.8936H216.355L226.78 74.4595Z" fill="#F8F4FF"/>
<path d="M273.573 44.8138L286.548 61.9246H286.586L299.599 44.8138H310.819V89.302H300.914V58.3433L287.183 75.653H285.395L272.144 58.2238V89.302H262.235V44.8138H273.573Z" fill="#F8F4FF"/>
<path d="M342.583 89.2621H352.493V53.8866H368.94V44.7739H342.583V89.2621Z" fill="#F8F4FF"/>
<path d="M352.497 89.2623H342.587V53.8868H326.139V44.7741H352.497V89.2623Z" fill="#F8F4FF"/>
<path d="M388.019 72.6084L375.073 55.9218H387.475L393.83 64.7576L400.184 55.9218H412.586L399.64 72.6084L412.591 89.302H400.189L393.83 80.4593L387.47 89.302H375.068L388.019 72.6084Z" fill="#F8F4FF"/>
<path d="M127.187 37.678C116.213 15.1821 93.0094 -0.279436 66.2738 0.00382853C29.3701 0.381515 -0.375642 30.62 0.00358619 67.3972C0.027288 70.5132 0.311709 73.5819 0.738341 76.5797C7.99109 76.4617 15.2438 76.5089 22.4729 76.863C21.2641 71.6462 20.956 66.1225 21.7618 60.3864C24.6534 40.0386 41.3158 23.7981 61.8415 21.5556C73.2421 20.3045 83.9079 23.3024 92.5116 29.1329C93.9574 30.1243 95.664 30.6908 97.4179 30.9505C108.89 32.6973 118.963 35.1995 127.164 37.7017L127.187 37.678Z" fill="url(#paint0_linear_4001_160)"/>
<path d="M133.07 56.021C125.723 55.2892 118.351 54.7227 110.956 54.5811C112.663 60.7185 113.137 67.3516 111.999 74.2444C108.539 94.9463 90.7388 110.856 69.7154 112.084C59.2866 112.698 49.5451 109.794 41.5576 104.436C40.0881 103.444 38.3816 102.878 36.6277 102.618C25.1086 100.871 14.9879 98.3691 6.76343 95.8669C17.6425 118.056 40.5385 133.399 66.966 133.399C103.893 133.399 133.924 103.491 133.924 66.7142C133.924 63.079 133.615 59.5146 133.047 56.021H133.07Z" fill="url(#paint1_linear_4001_160)"/>
<path d="M133.07 56.021C125.723 55.2892 118.351 54.7227 110.956 54.5811C112.663 60.7185 113.137 67.3516 111.999 74.2444C108.539 94.9463 90.7388 110.856 69.7154 112.084C59.2866 112.698 49.5451 109.794 41.5576 104.436C40.0881 103.444 38.3816 102.878 36.6277 102.618C25.1086 100.871 14.9879 98.3691 6.76343 95.8669C17.6425 118.056 40.5385 133.399 66.966 133.399C103.893 133.399 133.924 103.491 133.924 66.7142C133.924 63.079 133.615 59.5146 133.047 56.021H133.07Z" fill="url(#paint2_linear_4001_160)"/>
<path d="M131.81 50.0479C131.194 47.6638 129.416 45.7753 127.07 45.0436C113.109 40.6529 91.7304 35.625 67.0094 35.625C39.9894 35.625 31.7649 49.4578 29.2288 64.3528C34.2772 61.2369 50.0863 56.8699 67.0094 56.8699C100.595 56.8699 127.781 67.5159 133.872 70.1125C133.92 68.9794 133.967 67.8464 133.967 66.7133C133.967 60.9536 133.232 55.3827 131.834 50.0715L131.81 50.0479Z" fill="url(#paint3_linear_4001_160)"/>
<path d="M2.13292 83.4948C2.74916 85.8789 4.5268 87.7673 6.87327 88.4991C20.8336 92.8897 42.2126 97.9177 66.9336 97.9177C93.9536 97.9177 102.178 84.0849 104.714 69.1899C99.6658 72.3058 83.8567 76.6728 66.9336 76.6728C33.3482 76.6728 6.16222 66.0268 0.0708612 63.4302C0.0234576 64.5632 -0.000244141 65.6963 -0.000244141 66.8294C-0.000244141 72.5891 0.734511 78.1599 2.13292 83.4712V83.4948Z" fill="url(#paint4_linear_4001_160)"/>
<defs>
<linearGradient id="paint0_linear_4001_160" x1="12.8499" y1="60.7877" x2="88.3121" y2="18.5321" gradientUnits="userSpaceOnUse">
<stop stop-color="#FFAF5B"/>
<stop offset="0.49" stop-color="#F6642D"/>
<stop offset="1" stop-color="#D42E58"/>
</linearGradient>
<linearGradient id="paint1_linear_4001_160" x1="56.0977" y1="93.9903" x2="-53.9251" y2="172.625" gradientUnits="userSpaceOnUse">
<stop stop-color="#5A2FBA"/>
<stop offset="1" stop-color="#2F0C6A"/>
</linearGradient>
<linearGradient id="paint2_linear_4001_160" x1="108.211" y1="97.8912" x2="126.701" y2="44.8724" gradientUnits="userSpaceOnUse">
<stop stop-color="#210151" stop-opacity="0"/>
<stop offset="1" stop-color="#210151"/>
</linearGradient>
<linearGradient id="paint3_linear_4001_160" x1="71.909" y1="35.625" x2="425.669" y2="137.162" gradientUnits="userSpaceOnUse">
<stop stop-color="#5A2FBA"/>
<stop offset="0.802709" stop-color="#2F0C6A"/>
<stop offset="1" stop-color="#200050"/>
</linearGradient>
<linearGradient id="paint4_linear_4001_160" x1="104.335" y1="80.6857" x2="11.9929" y2="80.6857" gradientUnits="userSpaceOnUse">
<stop stop-color="#F6642D"/>
<stop offset="1" stop-color="#D42E58"/>
</linearGradient>
</defs>
</svg>
